<?xml version="1.0" standalone="no"?>
<!DOCTYPE svg PUBLIC "-//W3C//DTD SVG 20010904//EN"
 "http://www.w3.org/TR/2001/REC-SVG-20010904/DTD/svg10.dtd">
<svg version="1.0" xmlns="http://www.w3.org/2000/svg"
 width="454.000000pt" height="512.000000pt" viewBox="0 0 454.000000 512.000000"
 preserveAspectRatio="xMidYMid meet">

<g transform="translate(0.000000,512.000000) scale(0.100000,-0.100000)"
fill="grey" stroke="none">
<path d="M3084 5110 c-288 -38 -560 -174 -760 -382 -76 -79 -155 -181 -185
-240 l-19 -38 -953 0 -952 0 -50 -24 c-60 -28 -127 -99 -143 -154 -9 -30 -12
-538 -12 -2053 0 -2004 1 -2014 21 -2059 25 -55 71 -105 124 -133 l40 -22
1684 -3 c1126 -1 1696 1 1721 8 64 17 130 70 164 130 l31 55 3 1237 2 1236 73
40 c310 171 537 472 629 837 29 118 36 360 13 496 -22 135 -63 257 -127 382
-157 305 -448 547 -773 642 -171 50 -366 66 -531 45z m-7 -847 l162 -168 167
169 167 168 138 -138 138 -138 -165 -169 -164 -168 165 -172 165 -172 -138
-138 -137 -137 -167 167 -168 168 -168 -168 -167 -167 -138 138 -137 138 36
34 c20 19 95 97 167 173 l130 138 -166 167 -167 167 137 138 c76 75 140 137
143 137 2 0 78 -75 167 -167z m-1078 -115 c-157 -614 171 -1266 759 -1506 45
-18 126 -45 180 -60 89 -24 113 -26 302 -26 156 -1 220 3 268 15 l62 16 0
-1166 c0 -894 -3 -1170 -12 -1179 -9 -9 -391 -12 -1660 -12 -1618 0 -1647 0
-1658 19 -14 27 -14 3925 0 3952 10 19 31 19 894 19 l884 0 -19 -72z"/>
<path d="M1014 2886 c-80 -36 -98 -132 -35 -188 l31 -28 464 0 464 0 30 30
c16 16 32 41 35 57 7 39 -14 93 -46 117 -28 20 -39 21 -470 23 -355 2 -448 0
-473 -11z"/>
<path d="M1014 2076 c-42 -18 -74 -62 -74 -100 0 -40 33 -94 66 -106 34 -13
1664 -13 1698 0 33 12 66 66 66 106 0 39 -33 82 -76 100 -49 20 -1634 20
-1680 0z"/>
<path d="M1004 1264 c-58 -28 -79 -96 -49 -154 32 -63 -7 -60 900 -60 907 0
868 -3 900 60 30 59 8 127 -51 155 -48 23 -1653 22 -1700 -1z"/>
</g>
</svg>
